<?xml version="1.0" encoding="UTF-8" standalone="no"?>
<!-- Created with Inkscape (http://www.inkscape.org/) -->

<svg
   version="1.1"
   id="svg2"
   width="70"
   height="35"
   viewBox="0 0 69.987495 34.993751"
   sodipodi:docname="ASiSLogoSmall.svg"
   inkscape:version="1.2.2 (732a01da63, 2022-12-09)"
   xmlns:inkscape="http://www.inkscape.org/namespaces/inkscape"
   xmlns:sodipodi="http://sodipodi.sourceforge.net/DTD/sodipodi-0.dtd"
   xmlns="http://www.w3.org/2000/svg"
   xmlns:svg="http://www.w3.org/2000/svg">
  <defs
     id="defs6" />
  <sodipodi:namedview
     id="namedview4"
     pagecolor="#ffffff"
     bordercolor="#666666"
     borderopacity="1.0"
     inkscape:showpageshadow="2"
     inkscape:pageopacity="0.0"
     inkscape:pagecheckerboard="0"
     inkscape:deskcolor="#d1d1d1"
     showgrid="false"
     inkscape:zoom="2.2909853"
     inkscape:cx="151.46321"
     inkscape:cy="69.838946"
     inkscape:window-width="1600"
     inkscape:window-height="837"
     inkscape:window-x="-8"
     inkscape:window-y="-8"
     inkscape:window-maximized="1"
     inkscape:current-layer="g251" />
  <g
     inkscape:groupmode="layer"
     inkscape:label="Image"
     id="g8">
    <g
       id="g251"
       transform="matrix(0.60014805,0,0,0.60014805,-2993.8827,-38.872302)">
      <g
         id="g269"
         transform="matrix(0.01205646,0,0,0.01205646,4930.9328,62.923879)">
        <path
           style="fill:#fbfbfb;stroke-width:12"
           d="m 9011.4528,4307.4528 c -19.3302,-19.3302 -21.4604,-28.7533 -10.9428,-48.4056 20.3056,-37.9415 48.4139,-42.5249 73.1849,-11.934 40.1474,49.58 -17.3052,105.2765 -62.2421,60.3396 z m 61.0954,-124.7923 c -24.3722,-29.3665 -10.6286,-72.1861 24.479,-76.2672 43.4335,-5.0489 66.6362,25.2423 48.9943,63.962 -15.0019,32.9256 -51.3128,39.0069 -73.4733,12.3052 z M 9360,4164 c -19.6422,-36.7019 5.1379,-74.4176 45.8071,-69.7192 25.5009,2.946 33.0162,10.9319 36.1539,38.4171 6.2085,54.3884 -56.7394,78.4291 -81.961,31.3021 z m -412,-32 c -14.2605,-14.2605 -8.469,-60.6722 9.4241,-75.522 9.5833,-7.9535 28.2071,-11.0385 41.3862,-6.8556 30.0989,9.553 43.7886,49.9672 24.7117,72.9535 -14.8498,17.8931 -61.2615,23.6846 -75.522,9.4241 z m 294.1654,-23.7044 c -29.8643,-53.3647 33.6746,-99.9313 71.9155,-52.7056 16.3758,20.2232 18.621,32.1502 9.3227,49.5243 -15.0589,28.1379 -66.152,30.1386 -81.2382,3.1813 z m 298.8161,-9.113 c -33.3046,-40.1296 26.0715,-99.5057 66.2011,-66.2011 9.9169,8.2303 16.4077,28.9265 14.4241,45.9913 -2.7044,23.265 -11.3689,31.9295 -34.6339,34.6339 -17.0648,1.9836 -37.761,-4.5072 -45.9913,-14.4241 z m -413.7304,-45.0379 C 9103.7261,4020.5579 9121.8364,3984 9162,3984 c 42.089,0 62.583,42.626 35.0966,72.9983 -27.075,29.9174 -47.4754,29.084 -69.8455,-2.8536 z m 299.6061,-5.0019 c -23.5047,-23.5045 -24.031,-45.9102 -1.5177,-64.5946 27.6267,-22.9282 72.0756,-10.6743 76.5816,21.1123 7.5243,53.0765 -38.6959,79.8504 -75.0639,43.4823 z m 300.2967,-8.8152 c -13.1749,-9.6337 -19.8381,-26.9724 -17.2935,-45 3.2712,-23.1746 12.2354,-30.1101 42.7279,-33.0572 33.3276,-3.2212 39.7035,0.714 46.7695,28.8671 6.0938,24.2799 2.552,36.7129 -13.8818,48.7296 -27.283,19.9497 -31.6222,19.9841 -58.3221,0.4608 z M 8709.6804,4010.074 c -8.6242,-12.0593 -47.2354,-42.0153 -85.8026,-66.5688 -205.9848,-131.1388 -347.4252,-342.372 -398.5838,-595.2621 -26.6228,-131.6037 -17.8924,-399.0425 18.2236,-558.2431 112.7396,-496.9607 410.4511,-1012.642 826.8538,-1432.2364 363.9829,-366.7727 722.0137,-582.00865 1082.1586,-650.55703 117.991,-22.45789 337.587,-19.62271 439.794,5.67814 82.797,20.49619 86.474,22.91619 90,59.2422 2.829,29.14491 10.099,38.78317 31.549,41.82206 15.33,2.17194 36.93,-0.0612 48,-4.96359 11.07,-4.90192 23.727,-9.37896 28.127,-9.94898 4.4,-0.57 12.05,-5.0864 17,-10.0364 16.532,-16.53187 74.247,-9.48206 81.716,9.98144 12.669,33.01323 7.998,51.79182 -16.086,64.68123 -18.922,10.12675 -29.304,6.57257 -54.552,-18.67507 -28.581,-28.58184 -33.387,-29.72511 -57.63,-13.70968 -53.559,35.3828 -34.238,98.72208 30.114,98.72208 33.588,0 39.438,4.2562 39.438,28.69217 0,63.17663 -79.04,63.25043 -88.15,0.0828 C 10736.13,919.11466 10717.967,900 10686,900 c -45.875,0 -60.141,29.03087 -41.71,84.87838 14.046,42.55862 13.535,50.43962 -4.433,68.40742 -24.877,24.8769 -51.827,11.3477 -80.377,-40.3496 -21.007,-38.03995 -62.692,-51.16789 -90.14,-28.38803 -22.821,18.93963 -22.133,64.53523 1.267,83.95533 10.354,8.5933 17.007,29.2034 15,46.4693 -4.903,42.1805 -61.405,50.774 -81.912,12.4581 -10.066,-18.8084 -10.289,-29.637 -0.807,-39.1192 20.101,-20.1009 15.661,-50.2848 -10.937,-74.3558 -32.292,-29.22445 -83.951,-8.2855 -83.951,34.0282 0,26.0009 -7.467,29.7318 -85.193,42.568 -244.9668,40.4554 -496.5087,198.318 -779.5166,489.2089 -233.856,240.3698 -415.2615,492.9367 -560.9678,781.0231 -200.9831,397.3777 -267.6323,714.7083 -195.4165,930.4177 41.6427,124.3874 164.0144,272.4552 225.608,272.9819 36.9754,0.3156 53.5887,18.8351 49.4469,55.1184 -2.892,25.3339 -11.2475,35.7328 -30.961,38.5325 -19.7394,2.8034 -27,-2.1983 -27,-18.6 0,-29.6155 -22.786,-51.2346 -54,-51.2346 -32.1655,0 -54,21.8345 -54,54 0,34.4843 22.399,54 61.9778,54 39.1686,0 61.7903,32.2501 44.4084,63.3098 -16.7019,29.8449 -62.3289,26.0835 -76.5406,-6.3098 C 8802.84,3700.5626 8724,3716.819 8724,3774 c 0,37.8037 29.1852,58.363 70.9831,50.0034 41.2891,-8.2578 66.7338,15.0797 55.3945,50.8069 -12.8318,40.4296 -55.0441,44.9161 -81.4564,8.6579 -40.8976,-56.1434 -116.2868,-30.3856 -100.0785,34.1932 8.4829,33.7987 58.0449,52.8399 83.1987,31.9641 32.4596,-26.9391 60.3452,37.1879 29.5586,67.9745 -21.0425,21.0425 -53.9515,17.5987 -71.9196,-7.526 z m -30.8641,-211.1987 c 16.9597,-24.7681 8.9745,-66.1428 -15.2695,-79.1179 -34.5034,-18.4656 -70.1204,-3.619 -79.328,33.067 -13.851,55.1867 62.7933,92.4978 94.5975,46.0509 z m 99.6273,-188.2729 c 11.0861,-34.9293 -30.1167,-76.1321 -65.046,-65.046 -53.5048,16.9818 -59.1496,82.965 -8.7284,102.0297 31.7269,11.9963 63.2432,-3.8031 73.7744,-36.9837 z m -234.0129,-23.4071 c 10.3265,-19.2952 9.0261,-31.2894 -5.8545,-54 -23.2396,-35.4682 -55.409,-37.4247 -84.6204,-5.1466 -17.9828,19.8709 -19.3929,29.2521 -8.117,54 17.7437,38.9433 78.7987,42.1303 98.5919,5.1466 z m 72.3582,-179.6175 c 34.0251,-18.2097 31.5109,-81.1322 -3.7889,-94.823 -55.9986,-21.7187 -101.8516,40.3147 -62.192,84.138 23.9259,26.4379 33.6146,28.0069 65.9809,10.685 z M 10541.192,936.89285 c 39.66,-43.82335 -6.193,-105.85678 -62.192,-84.13804 -50.604,19.6263 -28.041,105.32011 28.14,106.88028 7.227,0.20076 22.551,-10.03331 34.052,-22.74224 z m -292.949,-25.34613 c 18.134,-33.8843 3.818,-70.07023 -31.199,-78.85884 -35.721,-8.96557 -65.044,12.8453 -65.044,48.38146 0,54.39767 71.349,76.99187 96.243,30.47738 z m 156.546,-23.96893 C 10447.345,864.80245 10427.288,792 10378.457,792 c -24.74,0 -58.457,31.14608 -58.457,54 0,18.93799 32.235,54 49.646,54 6.562,0 22.377,-5.59 35.143,-12.42221 z M 10665.6,885.6 c 38.79,-38.78977 -4.725,-104.3819 -58.025,-87.46499 -29.251,9.28366 -43.397,59.98074 -23.446,84.02082 17.834,21.48805 61.578,23.33733 81.471,3.44417 z m -116.811,-70.02221 c 34.025,-18.20967 31.511,-81.13215 -3.789,-94.82298 -55.999,-21.71874 -101.852,40.31469 -62.192,84.13804 23.926,26.43788 33.615,28.00686 65.981,10.68494 z M 9297.9785,3978.3553 c -17.6419,-38.7197 5.5608,-69.0109 48.9943,-63.962 21.8978,2.5454 32.181,11.7455 34.9483,31.2672 8.46,59.6779 -59.5746,86.1768 -83.9426,32.6948 z m 302.4999,0.2208 c -31.8775,-38.4099 14.9428,-97.4132 56.5216,-71.2289 41.548,26.165 26.746,88.6524 -21,88.6524 -11.5837,0 -27.5684,-7.8405 -35.5216,-17.4235 z M 8888,3951.9996 c -14.2605,-14.2604 -8.469,-60.6721 9.4241,-75.522 22.9863,-19.0769 63.4005,-5.3872 72.9535,24.7117 4.1829,13.1791 1.098,31.8029 -6.8556,41.3862 -14.8498,17.8931 -61.2615,23.6847 -75.522,9.4241 z m 292.9815,-20.8174 c -33.3046,-40.1295 26.0715,-99.5056 66.2011,-66.2011 9.9169,8.2303 16.4077,28.9265 14.4241,45.9913 -2.7044,23.265 -11.3689,31.9295 -34.6339,34.634 -17.0648,1.9836 -37.761,-4.5072 -45.9913,-14.4242 z m 292.0902,-24.6088 C 9464.2062,3871.2508 9484.3573,3840 9516,3840 c 29.0872,0 50.6154,29.2253 45.9211,62.3395 -3.0261,21.3472 -12.7285,28.5118 -42.5094,31.3901 -32.8649,3.1764 -39.738,-0.8508 -46.34,-27.1559 z M 9776,3915.9996 c -14.2605,-14.2604 -8.469,-60.6721 9.4241,-75.522 22.9863,-19.0769 63.4005,-5.3872 72.9535,24.7117 4.1829,13.1791 1.098,31.8029 -6.8556,41.3862 -14.8498,17.8931 -61.2615,23.6847 -75.522,9.4241 z m -709.1428,-34.8571 c -36.3681,-36.3681 -9.5942,-82.5882 43.4823,-75.064 31.7866,4.506 44.0405,48.955 21.1123,76.5816 -18.6844,22.5133 -41.0901,21.987 -64.5946,-1.5176 z m 600.2967,-20.8152 c -30.5969,-22.3731 -21.1758,-73.1904 14.5066,-78.2488 53.0765,-7.5242 79.8504,38.6959 43.4823,75.064 -22.9165,22.9165 -30.439,23.3297 -57.9889,3.1848 z M 8940,3816 c -17.9509,-33.5416 4.4832,-72 42,-72 35.6426,0 54.8244,32.3062 40.9687,69 -13.1324,34.7782 -64.9586,36.6521 -82.9687,3 z m 300.4784,-5.4235 c -31.8775,-38.41 14.9428,-97.4133 56.5216,-71.2289 41.548,26.1649 26.746,88.6524 -21,88.6524 -11.5837,0 -27.5684,-7.8406 -35.5216,-17.4235 z m 300,-12 c -31.8775,-38.41 14.9428,-97.4133 56.5216,-71.2289 41.548,26.1649 26.746,88.6524 -21,88.6524 -11.5837,0 -27.5684,-7.8406 -35.5216,-17.4235 z m 301.5606,-5.0623 c -9.0655,-5.7471 -14.2496,-25.1084 -12,-44.8163 3.1377,-27.4852 10.653,-35.4711 36.1539,-38.4171 22.679,-2.62 36.1025,3.586 45.4223,21 25.641,47.9108 -23.2234,91.6184 -69.5762,62.2334 z M 9416,3748 c -14.5717,-14.5716 -8.2948,-60.8166 10.3553,-76.295 14.0353,-11.6481 25.3326,-12.0546 48,-1.7265 29.7826,13.5698 35.8727,31.8288 22.3608,67.04 -7.236,18.8567 -64.9843,26.7133 -80.7161,10.9815 z m 300,-12 c -14.2605,-14.2605 -8.469,-60.6722 9.4241,-75.522 9.5833,-7.9535 28.2071,-11.0385 41.3862,-6.8556 30.0989,9.553 43.7886,49.9672 24.7117,72.9535 -14.8498,17.8931 -61.2615,23.6846 -75.522,9.4241 z m 292.981,-20.8174 c -33.3041,-40.1296 26.072,-99.5057 66.202,-66.2011 9.917,8.2303 16.407,28.9265 14.424,45.9913 -2.705,23.265 -11.369,31.9295 -34.634,34.6339 -17.065,1.9836 -37.761,-4.5072 -45.992,-14.4241 z m 305.876,-2.0398 c -22.309,-22.309 -22.5,-23.913 -6.435,-53.9317 15.844,-29.604 66.959,-30.264 82.585,-1.0668 8.531,15.9394 6.777,29.3901 -6.258,48 -21.453,30.6281 -44.004,32.886 -69.892,6.9982 z m -1307.9998,-12 c -36.3681,-36.368 -9.5942,-82.5882 43.4823,-75.0639 31.7866,4.506 44.0405,48.9549 21.1123,76.5816 -18.6844,22.5133 -41.0901,21.987 -64.5946,-1.5177 z m 299.6668,-9.2757 c -16.2525,-11.8841 -19.9567,-24.5254 -14.0649,-48 C 9298.8634,3618.3505 9307.5403,3612 9336,3612 c 28.4597,0 37.1366,6.3505 43.5409,31.8671 5.8918,23.4746 2.1876,36.1159 -14.0649,48 -12.1347,8.8731 -25.3989,16.1329 -29.476,16.1329 -4.0771,0 -17.3413,-7.2598 -29.476,-16.1329 z m 294.0242,-13.2066 c -22.9282,-27.6267 -10.6743,-72.0756 21.1123,-76.5816 53.0765,-7.5243 79.8504,38.6959 43.4823,75.0639 -23.5045,23.5047 -45.9102,24.031 -64.5946,1.5177 z m 294.309,-13.5177 c -36.3681,-36.368 -9.5942,-82.5882 43.4823,-75.0639 31.7866,4.506 44.0405,48.9549 21.1123,76.5816 -18.6844,22.5133 -41.0901,21.987 -64.5946,-1.5177 z m 299.9998,-12 c -29.17,-29.1703 -21.124,-66.5883 17.143,-79.722 51.118,-17.5443 84.496,60.6248 36.789,86.157 -30.019,16.0655 -31.623,15.8741 -53.932,-6.435 z M 9482.4,3621.6 c -7.92,-7.92 -14.4,-26.7172 -14.4,-41.7714 0,-32.9069 50.3707,-50.7589 78.1559,-27.6992 33.6385,27.9175 13.5205,83.8706 -30.1559,83.8706 -10.56,0 -25.68,-6.48 -33.6,-14.4 z M 9768,3600 c -17.9509,-33.5416 4.4832,-72 42,-72 16.8742,0 34.5661,10.1098 42,24 17.9509,33.5416 -4.4832,72 -42,72 -16.8742,0 -34.5661,-10.1098 -42,-24 z m 300.478,-5.4235 c -31.877,-38.41 14.943,-97.4133 56.522,-71.2289 41.548,26.1649 26.746,88.6524 -21,88.6524 -11.584,0 -27.568,-7.8406 -35.522,-17.4235 z m -419.4851,-52.7212 c -8.5305,-15.9393 -6.7767,-29.39 6.2582,-48 22.3701,-31.9376 42.7705,-32.771 69.8455,-2.8536 16.6066,18.3502 18.1108,28.0572 7.4376,48 -16.7446,31.2879 -67.3977,33.018 -83.5413,2.8536 z M 5608.7888,3459 c 44.7824,-104.4356 170.1531,-354.3698 252.8141,-504 l 54.6911,-99 -45.147,0.048 c -24.8309,0.024 -93.5242,7.8979 -152.6516,17.4953 -59.1276,9.5972 -109.0797,15.8748 -111.0045,13.9499 -3.4457,-3.4457 79.7279,-273.9953 86.442,-281.1815 3.8116,-4.0794 189.9317,-31.7177 295.348,-43.8582 l 67.2809,-7.7485 152.8189,-228.1152 c 205.0302,-306.0538 312.2931,-438.8338 527.4186,-652.8891 251.2545,-250.0045 460.3743,-386.7774 679.2007,-444.2246 93.9862,-24.6736 265.1874,-28.5377 326.4002,-7.3668 61.8435,21.3889 114.1516,84.7026 123.9474,150.0258 11.1617,74.4318 -8.2131,157.7867 -166.3947,715.8649 -338.8435,1195.4699 -311.4155,1089.564 -297.0037,1146.7981 34.5457,137.1934 0.2928,242.3358 -94.5413,290.2019 -29.4213,14.85 -67.4049,27 -84.4079,27 -54.7908,0 -135.7225,-50.1055 -164.7532,-102 -29.8683,-53.392 -35.3619,-142.2457 -14.4138,-233.1326 l 12.2463,-53.1327 -75.5397,-76.8043 c -60.9534,-61.9738 -101.028,-89.1833 -207.5396,-140.9134 -152.2748,-73.9562 -246.2536,-99.5236 -403.8787,-109.8776 l -112.4567,-7.3871 -57.789,100.6239 C 6168.0917,2984.7193 6084.6593,3147.45 6014.4701,3291 l -127.6165,261 H 5727.8819 5568.9103 Z M 7168.244,2745 C 7259.7593,2439.9128 7524,1540.0278 7524,1533.4555 c 0,-4.2577 -8.208,-15.9493 -18.2401,-25.9813 -25.758,-25.7581 -87.1633,-2.2997 -219.5083,83.8577 -259.2308,168.7608 -512.4766,439.2384 -811.1624,866.3564 -38.3418,54.8286 -67.7722,101.2925 -65.4008,103.2529 2.3713,1.9606 47.5116,10.3397 100.3116,18.6203 203.8003,31.962 403.8937,110.5549 564,221.5287 33,22.873 61.0232,41.885 62.2739,42.2486 1.2505,0.3636 15.6372,-43.8888 31.9701,-98.3388 z m 2780.7375,790.1826 c -33.3046,-40.1296 26.0715,-99.5057 66.2015,-66.2011 9.917,8.2303 16.407,28.9265 14.424,45.9913 -2.705,23.265 -11.369,31.9295 -34.6342,34.6339 -17.0648,1.9836 -37.761,-4.5072 -45.9913,-14.4241 z m 2187.5945,5.5342 c -328.177,-51.8865 -544.617,-289.0169 -564.733,-618.7168 -39.05,-640.0354 644.332,-1555.4161 1286.157,-1722.7911 127.183,-33.1669 309.667,-35.784 402.727,-5.7758 181.063,58.386 275.273,194.1952 275.273,396.8254 0,224.2004 -106.414,440.1354 -312.884,634.91 -105.201,99.2411 -228.231,190.9852 -239.088,178.2894 -4.45,-5.2019 -44.132,-61.8098 -88.184,-125.7956 l -80.094,-116.3377 57.125,-39.0426 c 107.277,-73.3194 259.345,-237.2074 303.521,-327.111 67.999,-138.387 63.5,-277.2604 -10.609,-327.586 -50.724,-34.4443 -201.468,-28.2426 -306.755,12.6203 -296.07,114.9078 -648.232,494.1987 -848.432,913.7947 -84.309,176.6986 -121.005,311.2686 -122.713,450 -1.254,101.9039 2.144,121.2754 32.022,182.5669 64.893,133.1217 191.853,213.7854 350.576,222.7372 238.178,13.4328 411.957,-80.9797 583.409,-316.9603 40.098,-55.1891 75.064,-100.3438 77.706,-100.3438 2.64,0 64.136,29.7581 136.657,66.129 l 131.858,66.1291 -75.057,103.6828 c -175.517,242.4548 -372.908,385.9773 -616.78,448.4604 -101.303,25.955 -285.232,37.9869 -371.702,24.3155 z m -3163.8858,-14.3306 c -46.6498,-26.1066 -6.1325,-106.466 43.9837,-87.2346 21.1659,8.1221 36.4161,46.9044 25.4323,64.6764 -14.4469,23.3758 -48.2982,34.3764 -69.416,22.5582 z m 1268.1988,-16.5421 c -8.678,-34.5734 11.797,-65.8441 43.111,-65.8441 31.314,0 51.789,31.2707 43.111,65.8441 -5.952,23.7168 -15.158,30.1559 -43.111,30.1559 -27.953,0 -37.159,-6.4391 -43.111,-30.1559 z m -406.0318,-24.7013 c -36.3681,-36.368 -9.5942,-82.5882 43.4823,-75.0639 31.7866,4.506 44.0405,48.9549 21.1123,76.5816 -18.6844,22.5133 -41.0901,21.987 -64.5946,-1.5177 z m 300.2968,-8.8152 c -13.175,-9.6337 -19.838,-26.9724 -17.294,-45 3.272,-23.1746 12.236,-30.1101 42.728,-33.0572 33.328,-3.2212 39.704,0.714 46.77,28.8671 6.094,24.2799 2.552,36.7129 -13.882,48.7296 -27.283,19.9497 -31.622,19.9841 -58.322,0.4608 z M 10310.4,3405.6 c -7.92,-7.92 -14.4,-26.7172 -14.4,-41.7714 0,-32.9069 50.371,-50.7589 78.156,-27.6992 33.638,27.9175 13.52,83.8706 -30.156,83.8706 -10.56,0 -25.68,-6.48 -33.6,-14.4 z m -429.7578,-64.7375 c -8.2727,-32.9613 16.4082,-64.8625 50.182,-64.8625 22.9711,0 43.332,32.4652 39.0969,62.3395 -3.0261,21.3472 -12.7285,28.5118 -42.5094,31.3901 -33.3276,3.2212 -39.7035,-0.714 -46.7695,-28.8671 z M 10184,3352 c -14.261,-14.2605 -8.469,-60.6722 9.424,-75.522 22.986,-19.0769 63.401,-5.3872 72.954,24.7117 4.182,13.1791 1.098,31.8029 -6.856,41.3862 -14.85,17.8931 -61.262,23.6846 -75.522,9.4241 z m -115.452,-57.3395 c -7.915,-9.5367 -12.626,-29.7867 -10.469,-45 3.026,-21.3472 12.728,-28.5118 42.509,-31.3901 33.328,-3.2212 39.704,0.714 46.77,28.8671 12.684,50.5371 -46.626,86.3017 -78.81,47.523 z m 300,-12 c -22.928,-27.6267 -10.674,-72.0756 21.112,-76.5816 53.077,-7.5243 79.851,38.6959 43.483,75.0639 -23.505,23.5047 -45.91,24.031 -64.595,1.5177 z m -420.0696,-48.084 c -31.8775,-38.41 14.9428,-97.4133 56.5216,-71.2289 41.548,26.1649 26.746,88.6524 -21,88.6524 -11.5837,0 -27.5684,-7.8406 -35.5216,-17.4235 z M 10124,3172 c -14.261,-14.2605 -8.469,-60.6722 9.424,-75.522 22.986,-19.0769 63.401,-5.3872 72.954,24.7117 4.182,13.1791 1.098,31.8029 -6.856,41.3862 -14.85,17.8931 -61.262,23.6846 -75.522,9.4241 z m -115.452,-57.3395 c -22.928,-27.6267 -10.6741,-72.0756 21.112,-76.5816 53.077,-7.5243 79.851,38.6959 43.483,75.0639 -23.505,23.5047 -45.91,24.031 -64.595,1.5177 z m 168.433,-599.4779 c -33.304,-40.1296 26.072,-99.5057 66.202,-66.2011 9.917,8.2303 16.407,28.9265 14.424,45.9913 -2.705,23.265 -11.369,31.9295 -34.634,34.6339 -17.065,1.9836 -37.761,-4.5072 -45.992,-14.4241 z m 59.497,-120.6061 c -31.877,-38.41 14.943,-97.4133 56.522,-71.2289 41.548,26.1649 26.746,88.6524 -21,88.6524 -11.584,0 -27.568,-7.8406 -35.522,-17.4235 z m -98.914,-39.4459 c -23.64,-5.4057 -37.351,-39.2985 -26.908,-66.5122 17.881,-46.5973 89.344,-29.4949 89.344,21.3816 0,31.3998 -29.436,52.6768 -62.436,45.1306 z M 10412,2332 c -16.855,-16.8549 -6.994,-63.694 16,-76 45.756,-24.488 84.23,14.1658 64.716,65.0185 -7.236,18.8567 -64.984,26.7133 -80.716,10.9815 z m -418.0215,-57.6447 c -17.6419,-38.7197 5.5608,-69.0109 48.9945,-63.962 21.898,2.5454 32.181,11.7455 34.948,31.2672 8.46,59.6779 -59.574,86.1768 -83.9425,32.6948 z m 302.6315,0.3792 c -9.087,-10.949 -12.142,-30.9643 -7.531,-49.3357 6.225,-24.8063 13.955,-30.1705 39.129,-27.1559 17.254,2.0662 37.288,13.2067 44.52,24.7567 27.639,44.1416 -42.728,91.9676 -76.118,51.7349 z m -420.4014,-48.4836 c -12.1262,-14.6111 -12.6378,-25.7641 -2.2301,-48.6066 24.368,-53.4819 92.4026,-26.9831 83.9426,32.6949 -4.8239,34.029 -58.0712,44.3978 -81.7125,15.9117 z m 300.2694,-11.6748 c -31.877,-38.4099 14.943,-97.4132 56.522,-71.2289 41.548,26.165 26.746,88.6524 -21,88.6524 -11.584,0 -27.568,-7.8405 -35.522,-17.4235 z m 292.13,-11.8755 c -18.003,-46.9166 25.916,-95.5839 64.392,-71.3534 45.316,28.5381 25.756,88.6524 -28.846,88.6524 -15.899,0 -31.894,-7.7845 -35.546,-17.299 z m -405.751,-37.5581 C 10052.486,2154.7715 10044,2138.9572 10044,2130 c 0,-15.511 31.109,-54 43.646,-54 23.676,0 52.354,29.5799 52.354,54 0,16.5438 -10.04,34.529 -23.211,41.5778 -30.019,16.0655 -31.623,15.8741 -53.932,-6.435 z m 300.847,-7.3083 c -10.837,-6.0645 -19.704,-24.0685 -19.704,-40.0083 0,-50.7196 71.506,-67.6929 89.344,-21.2075 17.603,45.8712 -27,85.0786 -69.64,61.2162 z m 291.749,-22.3818 c -19.33,-19.3302 -21.461,-28.7533 -10.943,-48.4056 20.306,-37.9414 48.414,-42.5248 73.185,-11.934 40.147,49.5801 -17.305,105.2765 -62.242,60.3396 z M 9938.4,2109.6 c -7.92,-7.92 -14.4,-23.4588 -14.4,-34.5307 0,-51.7511 86.73,-64.1333 93.921,-13.4088 7.184,50.6777 -45.2018,82.2587 -79.521,47.9395 z m 298.629,-14.3604 c -8.179,-9.8552 -13.107,-30.3658 -10.95,-45.5791 3.062,-21.598 11.525,-27.6605 38.613,-27.6605 42.774,0 67.324,32.2075 48.021,63 -17.229,27.484 -56.916,32.8534 -75.684,10.2396 z m 303.77,-4.4233 c -20.228,-13.5095 -26.733,-42.5274 -14.755,-65.8163 14.532,-28.2562 65.975,-26.8612 81.534,2.2111 16.065,30.0187 15.874,31.6227 -6.435,53.9317 -20.443,20.4425 -39.617,23.5163 -60.344,9.6735 z m -431.72,-68.2155 c -14.721,-58.651 51.914,-90.2024 83.634,-39.6008 18.074,28.8319 -3.974,61.9031 -44.505,66.7567 -25.174,3.0147 -32.904,-2.3496 -39.129,-27.1559 z m 892.899,-12.2455 c -17.641,-38.7197 5.561,-69.0109 48.995,-63.962 21.898,2.5454 32.181,11.7455 34.948,31.2672 8.46,59.6779 -59.574,86.1768 -83.943,32.6948 z m -297.769,-0.108 c -12.127,-14.6111 -12.638,-25.7641 -2.231,-48.6066 24.369,-53.4819 92.403,-26.9831 83.943,32.6949 -4.824,34.029 -58.071,44.3978 -81.712,15.9117 z m -399.519,-31.865 c -46.65,-26.1066 -6.132,-106.4661 43.984,-87.2346 21.166,8.1221 36.416,46.9044 25.432,64.6764 -14.447,23.3757 -48.298,34.3764 -69.416,22.5582 z m 293.165,-17.6374 c -31.937,-22.37 -32.771,-42.7705 -2.853,-69.8455 30.372,-27.4824 72.998,-6.9884 72.998,35.1006 0,40.1636 -36.558,58.2739 -70.145,34.7489 z m 287.126,-9.5663 c -33.304,-40.1295 26.072,-99.5056 66.202,-66.2011 9.917,8.2303 16.407,28.9265 14.424,45.9913 -2.705,23.265 -11.369,31.9295 -34.634,34.634 -17.065,1.9836 -37.761,-4.5072 -45.992,-14.4242 z m -708.433,-36.5221 c -24.372,-29.3665 -10.628,-72.1861 24.479,-76.2672 43.434,-5.0489 66.636,25.2424 48.995,63.9621 -15.002,32.9256 -51.313,39.0068 -73.474,12.3051 z m 294.309,-13.5176 c -22.916,-22.9165 -23.33,-30.4391 -3.185,-57.9889 25.025,-34.2228 73.444,-20.8984 78.289,21.5439 5.9,51.6832 -38.379,73.1699 -75.104,36.445 z M 10766.4,1893.6 c -7.92,-7.92 -14.4,-23.4588 -14.4,-34.5307 0,-51.7511 86.73,-64.1333 93.921,-13.4088 7.184,50.6777 -45.202,82.2587 -79.521,47.9395 z m -421.935,-56.7307 c -15.27,-28.5335 -5.216,-57.744 22.953,-66.6846 46.562,-14.778 82.072,27.8412 58.417,70.1109 -15.16,27.0896 -66.188,24.941 -81.37,-3.4263 z m 300.517,-5.6861 c -19.111,-23.0278 -12.894,-54.8875 14.018,-71.8356 30.783,-19.3854 63,5.1409 63,47.9603 0,28.3812 -5.644,35.3481 -31.027,38.2988 -17.065,1.9836 -37.761,-4.5069 -45.991,-14.4235 z m -114.125,-50.0404 C 10520.486,1770.7715 10512,1754.9572 10512,1746 c 0,-15.511 31.109,-54 43.646,-54 23.676,0 52.354,29.5799 52.354,54 0,16.5438 -10.04,34.529 -23.211,41.5778 -30.019,16.0655 -31.623,15.8741 -53.932,-6.435 z m -128.879,-70.7875 c -17.641,-38.7197 5.561,-69.0109 48.995,-63.962 21.898,2.5454 32.181,11.7455 34.948,31.2672 8.46,59.6779 -59.574,86.1768 -83.943,32.6948 z m 302.5,0.2208 c -31.877,-38.4099 14.943,-97.4132 56.522,-71.2289 41.548,26.165 26.746,88.6524 -21,88.6524 -11.584,0 -27.568,-7.8405 -35.522,-17.4235 z m -120,-60 c -31.877,-38.4099 14.943,-97.4132 56.522,-71.2289 41.548,26.165 26.746,88.6524 -21,88.6524 -11.584,0 -27.568,-7.8405 -35.522,-17.4235 z m 292.13,-11.8755 c -18.003,-46.9166 25.916,-95.5839 64.392,-71.3534 45.316,28.5381 25.756,88.6524 -28.846,88.6524 -15.899,0 -31.894,-7.7845 -35.546,-17.299 z m -405.751,-37.5581 C 10460.486,1590.7715 10452,1574.9572 10452,1566 c 0,-15.511 31.109,-54 43.646,-54 23.676,0 52.354,29.5799 52.354,54 0,16.5438 -10.04,34.529 -23.211,41.5778 -30.019,16.0655 -31.623,15.8741 -53.932,-6.435 z m 302.143,-6.1037 c -39.006,-22.7186 -15.147,-95.0388 31.354,-95.0388 12.537,0 43.646,38.489 43.646,54 0,17.0471 -31.82,54.2641 -45.857,53.6351 -4.479,-0.2004 -17.593,-5.869 -29.143,-12.5963 z m -128.39,-64.3039 c -9.087,-10.9491 -12.142,-30.9643 -7.531,-49.3357 6.225,-24.8063 13.955,-30.1706 39.129,-27.1559 17.254,2.0661 37.288,13.2067 44.52,24.7567 27.639,44.1415 -42.728,91.9675 -76.118,51.7349 z m 301.429,-5.2207 c -9.065,-5.7471 -14.25,-25.1084 -12,-44.8163 4.845,-42.4423 53.264,-55.7668 78.289,-21.544 20.145,27.5499 19.731,35.0724 -3.185,57.9889 -21.024,21.0238 -39.317,23.4507 -63.104,8.3714 z M 10820,1468 c -14.261,-14.2605 -8.469,-60.6722 9.424,-75.522 20.976,-17.4083 61.628,-6.6804 71.424,18.8481 16.063,41.8575 -49.621,87.901 -80.848,56.6739 z m -107,-52.9612 c -27.624,-16.0894 -26.913,-67.0298 1.145,-82.0459 15.939,-8.5305 29.39,-6.7767 48,6.2582 30.628,21.4528 32.886,44.0039 6.998,69.8917 -21.858,21.8582 -27.687,22.4702 -56.143,5.896 z m 292.855,-18.2899 c -14.22,-9.9604 -25.855,-25.5973 -25.855,-34.7489 0,-9.1516 11.635,-24.7885 25.855,-34.7489 33.587,-23.525 70.145,-5.4147 70.145,34.7489 0,40.1636 -36.558,58.2739 -70.145,34.7489 z m -253.39,-123.8796 c -22.818,-42.6359 16.508,-84.0223 62.917,-66.2136 46.597,17.8811 29.495,89.3443 -21.382,89.3443 -16.509,0 -34.525,-10.0333 -41.535,-23.1307 z m 300.517,-5.6861 c -19.111,-23.0278 -12.894,-54.8875 14.018,-71.8356 30.783,-19.3854 63,5.1409 63,47.9603 0,28.3812 -5.644,35.3481 -31.027,38.2988 -17.065,1.9836 -37.761,-4.5069 -45.991,-14.4235 z m -413.396,-44.5608 c -35.012,-49.9858 18.127,-98.5162 65.695,-59.9979 26.63,21.5634 26.849,23.2854 6.838,53.8258 -24.996,38.1491 -48.722,40.168 -72.533,6.1721 z m 299.271,-5.4796 c -24.969,-24.9695 -23.79,-44.9588 4.145,-70.2394 18.35,-16.6066 28.057,-18.1108 48,-7.4376 31.893,17.0688 32.963,67.427 1.787,84.112 -30.019,16.0655 -31.623,15.8741 -53.932,-6.435 z m -412.818,-39.6286 c -9.065,-5.7471 -14.25,-25.1083 -12,-44.8163 3.138,-27.4852 10.653,-35.471 36.154,-38.4171 22.679,-2.6201 36.102,3.586 45.422,21 25.641,47.9108 -23.223,91.6184 -69.576,62.2334 z m 283.939,-31.1588 c -17.641,-38.7198 5.561,-69.011 48.995,-63.9621 21.898,2.5455 32.181,11.7455 34.948,31.2672 8.46,59.6779 -59.574,86.1768 -83.943,32.6949 z m -116.997,-47.1728 c -33.304,-40.1295 26.072,-99.50568 66.202,-66.2012 9.917,8.2304 16.407,28.9265 14.424,45.9914 -2.705,23.265 -11.369,31.9295 -34.634,34.6339 -17.065,1.9837 -37.761,-4.5072 -45.992,-14.4241 z M 10994.4,1089.6 c -29.749,-29.7495 -7.808,-81.6 34.531,-81.6 30.473,0 50.759,31.6661 42.18,65.8442 -8.286,33.0165 -50.732,41.7345 -76.711,15.7558 z m -115.543,-52.4571 c -29.17,-29.1703 -21.124,-66.58836 17.143,-79.72204 51.118,-17.54433 84.496,60.62474 36.789,86.15694 -30.019,16.0655 -31.623,15.8741 -53.932,-6.4349 z m 46.222,-142.54205 c -14.721,-58.65105 51.914,-90.20249 83.634,-39.60085 18.074,28.83187 -3.974,61.90313 -44.505,66.75668 -25.174,3.01462 -32.904,-2.3495 -39.129,-27.15583 z m 67.399,-108.02438 c -31.877,-38.41001 14.943,-97.41327 56.522,-71.22889 41.548,26.16496 26.746,88.65242 -21,88.65242 -11.584,0 -27.568,-7.84058 -35.522,-17.42353 z"
           id="path261" />
        <path
           style="fill:#949492;stroke-width:12"
           d="m 7725.9659,3551.6785 c -87.5178,-46.2308 -127.5103,-156.038 -93.91,-257.8481 18.6591,-56.5372 89.9125,-136.4624 140.5587,-157.6648 97.6088,-40.8629 209.3769,-7.8194 258.5937,76.4515 27.3297,46.7948 29.9812,150.1603 5.3631,209.0796 -52.8402,126.4646 -200.3811,188.2073 -310.6055,129.9818 z m 3056.2791,-3.1205 c -131.798,-74.6461 -135.491,-261.1444 -7.343,-370.834 124.58,-106.636 302.276,-62.8084 334.941,82.6108 45.349,201.8836 -160.411,382.9127 -327.598,288.2232 z m 2571.721,3.8069 c -102.452,-55.7172 -134.287,-176.2341 -77.314,-292.6851 43.814,-89.5496 106.032,-131.3648 203.618,-136.8435 85.486,-4.7993 135.787,19.1599 176.464,84.054 36.765,58.6512 28.595,189.1803 -15.968,255.1097 -69.278,102.4954 -192.882,141.4405 -286.8,90.3649 z"
           id="path259"
           sodipodi:nodetypes="ssssssssssscssss" />
        <path
           style="fill:#e2842f;stroke-width:12"
           d="m 8832.5482,4074.6605 c -22.9282,-27.6267 -10.6743,-72.0756 21.1123,-76.5816 55.4039,-7.8541 86.2065,56.3034 39.1284,81.4989 -31.1165,16.653 -43.1544,15.6705 -60.2407,-4.9173 z m 59.325,-12.5077 c 21.2575,-25.6138 6.1155,-54.9161 -25.8564,-50.0369 -32.3008,4.9295 -41.5404,26.3595 -21.682,50.2875 18.4451,22.225 28.9312,22.1697 47.5384,-0.2508 z M 9000,3996 c -17.9509,-33.5416 4.4832,-72 42,-72 37.5168,0 59.9509,38.4584 42,72 -7.4339,13.8902 -25.1258,24 -42,24 -16.8742,0 -34.5661,-10.1098 -42,-24 z m 73.5307,-8.3035 c 12.7649,-15.7368 12.9149,-18.165 0.6672,-10.7958 -11.1072,6.6827 -14.6727,3.0395 -12,-12.2615 4.8067,-27.5182 -35.4673,-37.7165 -45.5175,-11.5261 -17.9807,46.8567 25.4598,73.2823 56.8508,34.5834 z m 893.6232,-139.3689 c -24.0043,-17.5524 -22.4964,-70.5915 2.1461,-75.4876 8.415,-1.672 9.765,-0.2952 3,3.06 -20.328,10.0814 -13.874,50.4132 10.1222,63.2556 12.3322,6.6 25.8318,8.59 29.9998,4.4222 12.143,-12.1429 8.734,-61.0046 -4.722,-67.6778 -6.765,-3.355 -5.801,-4.8336 2.143,-3.2858 31.247,6.0888 40.038,40.9972 16.793,66.6833 -26.271,29.0285 -31.125,29.7654 -59.4821,9.0301 z m 473.8751,-73.088 c -8.179,-9.8552 -13.107,-30.3658 -10.95,-45.5791 3.062,-21.598 11.525,-27.6605 38.613,-27.6605 42.774,0 67.324,32.2075 48.021,63 -17.229,27.484 -56.916,32.8534 -75.684,10.2396 z m 58.82,-18.9959 c 14.404,-23.3053 1.217,-48.2437 -25.509,-48.2437 -25.423,0 -40.569,26.4595 -30.366,53.0471 7.871,20.5129 42.045,17.5752 55.875,-4.8034 z m -1365.9937,4.5052 c -34.7291,-24.3252 -32.9144,-62.0471 3.7894,-78.7704 36.7585,-16.7483 66.3553,3.3539 66.3553,45.0686 0,39.2447 -36.9115,56.9791 -70.1447,33.7018 z m 54.471,-24.4842 c 11.1343,-29.0154 -31.4816,-58.2522 -53.2213,-36.5125 -8.7928,8.7927 -12.5107,25.0455 -8.2621,36.1173 9.9206,25.8525 51.6117,26.1205 61.4834,0.3948 z m -163.4762,-350.6763 c -23.5777,-44.0553 15.8468,-84.8473 64.1054,-66.3288 14.3619,5.5112 19.2654,18.812 16.6906,45.2722 -2.9776,30.5988 -9.5483,38.15 -35.839,41.1874 -22.3627,2.5836 -36.0905,-3.5634 -44.957,-20.1308 z m 66.869,-7.7412 c 9.0909,-23.6905 -16.6518,-54.271 -38.5964,-45.85 -9.4175,3.6138 -17.1227,19.4928 -17.1227,35.2867 0,20.864 6.6655,28.7161 24.3766,28.7161 13.4072,0 27.5113,-8.1688 31.3425,-18.1528 z M 9885,3071.0388 c -44.6552,-26.0093 -12.6858,-88.6187 41.3395,-80.9599 31.7866,4.506 44.0405,48.9549 21.1123,76.5816 -16.775,20.2127 -33.2793,21.3697 -62.4518,4.3783 z m 60.8346,-37.9162 c -4.2796,-29.9962 -43.8043,-43.824 -58.2864,-20.3916 -15.0595,24.3668 0.7212,47.269 32.5703,47.269 23.7467,0 28.7976,-5.279 25.7161,-26.8774 z M 10503,2970.0553 c -32.572,-23.4233 -35.732,-78.2251 -8.297,-143.8868 24.441,-58.495 33.125,-49.0345 11.283,12.2909 -27.335,76.746 -23.29,109.7685 15.014,122.5665 45.132,15.0793 116.066,-2.6718 169.247,-42.354 77.237,-57.6314 219.457,-170.6612 237.742,-188.9467 9.749,-9.7488 23.058,-17.7252 29.576,-17.7252 6.518,0 9.207,-4.2791 5.975,-9.5089 -3.233,-5.23 5.159,-10.3404 18.648,-11.3565 13.489,-1.0164 22.564,0.096 20.168,2.4669 -31.142,30.8411 -326.577,250.734 -355.969,264.9487 -61.047,29.5234 -112.581,33.6584 -143.387,11.5051 z m 480,-0.3168 c -20.869,-14.7624 -27,-30.8425 -27,-70.8183 0,-46.4243 37.678,-164.344 61.185,-191.4882 13.18,-15.2202 5.328,15.8413 -16.323,64.5684 -25.258,56.8435 -37.104,125.4642 -27.954,161.9211 6.649,26.4935 13.943,30.0789 61.192,30.0789 29.503,0 80.7,-10.2813 113.771,-22.8472 73.226,-27.8233 79.829,-20.3522 9.129,10.3284 -78.621,34.118 -142.153,40.7842 -174,18.2569 z m 15.995,-64.1276 c -5.169,-8.364 -6.158,-18.448 -2.197,-22.4089 10.74,-10.7396 22.45,5.0556 16.649,22.4574 -4.065,12.194 -6.891,12.1845 -14.452,-0.048 z m 239.005,-8.8396 c 13.2,-10.1558 22.565,-23.7404 20.81,-30.1879 -1.754,-6.4475 4.009,-10.1164 12.808,-8.153 8.799,1.9633 35.848,-9.9304 60.108,-26.4304 41.302,-28.0901 44.115,-33.9793 44.192,-92.5044 l 0.08,-62.5043 -60,37.2981 c -33,20.5138 -60,42.7909 -60,49.5043 0,6.7135 -3.612,8.5945 -8.026,4.1801 -4.415,-4.4144 -17.513,0.5592 -29.107,11.0518 -35.427,32.0606 -64.807,17.0615 -65.271,-33.3213 -0.222,-24.1518 2.504,-42.1144 6.06,-39.9168 7.149,4.4184 47.764,-78.3513 114.718,-233.7875 24.165,-56.1 48.817,-111.3767 54.781,-122.8372 16.629,-31.9515 14.893,-33.1628 -47.537,-33.1628 -61.614,0 -129.543,37.4694 -113.878,62.815 4.546,7.3555 2.37,9.4335 -5.065,4.8384 -7.168,-4.4302 -20.152,1.6219 -28.854,13.4492 -15.682,21.3146 -186.604,175.7981 -307.588,278.0044 -78.696,66.4826 -152.92,117.3686 -139.252,95.4685 5.689,-9.1165 11.441,-23.8203 12.781,-32.6751 1.341,-8.8548 6.403,-19.6548 11.25,-24 4.846,-4.3452 5.421,1.5496 1.277,13.0996 -4.145,11.55 -4.405,21 -0.578,21 16.21,0 377.679,-315.2005 459.643,-400.8079 38.849,-40.5753 45.9,-43.1921 116.388,-43.1921 h 75.034 l -18.583,44.4736 c -10.22,24.4604 -53.698,120.3104 -96.616,213 -118.551,256.0267 -116.88,262.3731 41.217,156.5264 54.219,-36.3 100.071,-66.0113 101.893,-66.0252 1.822,-0.012 1.5,35.1439 -0.716,78.1284 l -4.03,78.1536 -75.494,53.8716 c -41.522,29.6294 -80.209,53.6999 -85.97,53.49 -5.762,-0.21 0.324,-8.6911 13.523,-18.8471 z m -786,-173.1039 v -73.177 l 101.661,-96.2305 c 73.44,-69.5172 110.916,-115.777 135,-166.6428 31.123,-65.7317 36.131,-70.4632 75.339,-71.1785 23.1,-0.4212 54.15,-4.0224 69,-8.0021 16.2,-4.3413 27,-1.8758 27,6.1639 0,8.1898 -24.863,13.3996 -63.949,13.3996 h -63.949 l -27.56,58.8428 c -26.36,56.2787 -118.507,162.5814 -201.542,232.502 -34.407,28.9723 -39,39.8964 -39,92.7477 0,61.6242 7.326,70.9285 35.36,44.9075 12.778,-11.8601 14.397,-11.8735 7.732,-0.06 -4.636,8.2145 -18.928,20.5546 -31.76,27.4223 -21.924,11.7284 -23.332,8.0648 -23.332,-60.6949 z m 264,-28.7734 c 0,-3.5874 35.1,-85.6025 78,-182.2558 42.9,-96.6531 78,-183.1368 78,-192.1856 0,-9.049 5.4,-16.4526 12,-16.4526 6.6,0 12,2.0036 12,4.4526 0,2.4488 -35.1,83.5325 -78,180.1856 -42.9,96.6533 -78,180.731 -78,186.8393 0,6.1084 -5.4,14.4435 -12,18.5225 -6.6,4.079 -12,4.4813 -12,0.894 z m -779.1499,-293.3056 c -23.5777,-44.0553 15.8468,-84.8473 64.1059,-66.3288 14.361,5.5112 19.265,18.812 16.69,45.2722 -2.977,30.5988 -9.548,38.15 -35.8389,41.1874 -22.3627,2.5836 -36.0905,-3.5634 -44.957,-20.1308 z m 68.9919,-22.7647 c 5.152,-36.119 -31.67,-50.4398 -53.3739,-20.7579 -12.1419,16.6047 -12.7198,25.9916 -2.3683,38.4643 19.7199,23.7611 51.2552,13.7438 55.7422,-17.7064 z M 9818.4,2061.6 c -34.3192,-34.3192 -2.7382,-86.7053 47.9395,-79.5211 50.7245,7.1906 38.3423,93.9211 -13.4088,93.9211 -11.0719,0 -26.6107,-6.48 -34.5307,-14.4 z m 63.6,-33.4042 c 0,-19.7283 -7.9535,-29.018 -27.383,-31.9832 -36.569,-5.5808 -50.226,29.6207 -20.052,51.6845 29.7664,21.7657 47.435,14.4275 47.435,-19.7013 z M 9846,2028 c -4.079,-6.6 -2.0164,-12 4.5836,-12 6.6,0 15.3374,5.4 19.4164,12 4.079,6.6 2.0164,12 -4.5836,12 -6.6,0 -15.3374,-5.4 -19.4164,-12 z m 566,4 c -17.703,-17.7028 -7.732,-74.4678 14.309,-81.4635 48.664,-15.4449 91.743,35.2535 61.213,72.0394 -14.85,17.8931 -61.262,23.6846 -75.522,9.4241 z m 67.362,-27.5588 c 7.295,-27.8971 -19.467,-54.0385 -45.209,-44.1603 -18.382,7.0537 -24.839,45.0332 -10.153,59.7191 16.444,16.444 49.416,7.1776 55.362,-15.5588 z m 609.116,-101.8647 c -31.877,-38.41 14.943,-97.4133 56.522,-71.2289 41.548,26.1649 26.746,88.6524 -21,88.6524 -11.584,0 -27.568,-7.8406 -35.522,-17.4235 z m 69.123,-40.3861 c -5.103,-26.7885 -55.484,-33.6708 -64.997,-8.8792 -4.009,10.447 -0.718,26.9122 7.314,36.5894 18.933,22.8134 63.253,1.5228 57.683,-27.7102 z m -86.744,-297.0476 C 11060.486,1554.7715 11052,1538.9572 11052,1530 c 0,-15.511 31.109,-54 43.646,-54 23.676,0 52.354,29.5799 52.354,54 0,16.5438 -10.04,34.529 -23.211,41.5778 -30.019,16.0655 -31.623,15.8741 -53.932,-6.435 z m 65.143,-42.6121 c 0,-15.7641 -8.624,-22.5307 -28.716,-22.5307 -36.763,0 -51.991,35.9552 -23.922,56.48 25.049,18.3162 52.638,0.522 52.638,-33.9493 z m -550.971,-171.2911 c -8.179,-9.8552 -13.107,-30.3658 -10.95,-45.5791 3.062,-21.598 11.525,-27.6605 38.613,-27.6605 42.774,0 67.324,32.2075 48.021,63 -17.229,27.484 -56.916,32.8534 -75.684,10.2396 z M 10644,1338 c 11.918,-14.3606 11.918,-21.6394 0,-36 -29.988,-36.1327 -72.732,-8.4868 -55.66,36 3.799,9.9 14.515,18 23.814,18 9.299,0 23.63,-8.1 31.846,-18 z m 234.857,-0.8568 c -36.368,-36.368 -9.594,-82.5882 43.483,-75.064 20.419,2.8947 28.697,13.0043 31.621,38.619 5.9,51.6832 -38.379,73.1699 -75.104,36.445 z M 10938,1308 c 0,-18.7373 -7.752,-31.1642 -21.036,-33.7225 -23.754,-4.5747 -39.202,24.1587 -28.284,52.6094 11.445,29.8248 49.32,15.3207 49.32,-18.8869 z m -598.14,-429.94489 c -25.837,-28.54914 -25.044,-41.64429 4.121,-68.03764 19.238,-17.41038 29.324,-19.12536 51,-8.67201 25.604,12.34761 25.013,13.07276 -11.273,13.84238 -38.374,0.81396 -68.362,25.26096 -41.833,34.10395 7.769,2.58952 14.125,11.96226 14.125,20.82832 0,8.86607 9.45,18.58965 21,21.60798 17.065,4.45951 17.413,5.74873 1.86,6.8799 -10.527,0.7656 -28.077,-8.48319 -39,-20.55288 z m 60.523,-6.1716 c -3.826,-9.97084 0.822,-24.58481 10.33,-32.47549 13.623,-11.30592 17.248,-10.85603 17.103,2.12264 -0.1,9.05814 -4.749,23.67211 -10.33,32.47549 -8.243,13.00455 -11.451,12.60649 -17.103,-2.12264 z M 10694.4,801.6 c -25.979,-25.9787 -17.261,-68.42477 15.756,-76.71138 53.952,-13.54123 89.219,44.77309 47.844,79.11138 -12.436,10.32125 -18,10.77541 -18,1.46934 0,-7.40814 5.4,-13.46934 12,-13.46934 6.6,0 12,-11.1187 12,-24.7082 0,-15.62088 -5.095,-21.55912 -13.854,-16.1459 -8.584,5.30495 -10.597,3.2918 -5.292,-5.2918 11.376,-18.40671 -19.946,-17.96206 -38.454,0.54588 -18.978,18.97748 -18.175,28.11045 4.457,50.74285 10.372,10.37145 14.152,18.85717 8.4,18.85717 -5.751,0 -16.937,-6.48 -24.857,-14.4 z m 358.148,-134.9395 c -22.928,-27.6267 -10.674,-72.07558 21.112,-76.58167 53.077,-7.52413 79.851,38.69603 43.483,75.06402 -23.505,23.50458 -45.91,24.031 -64.595,1.51765 z m 57.341,-35.53701 c 3.358,-28.51773 0.1,-32.48635 -23.878,-29.07457 -31.525,4.48602 -44.872,43.6948 -20.192,59.31808 25.127,15.906 39.823,5.82053 44.07,-30.24351 z"
           id="path257" />
        <path
           style="fill:#e1791c;stroke-width:12"
           d="m 8855.3284,4069.8691 c -18.6946,-15.1379 -24.7131,-28.952 -19.047,-43.7175 4.5559,-11.8727 11.5664,-18.3038 15.5788,-14.2913 4.0125,4.0124 17.0577,2.0707 28.9893,-4.315 29.5083,-15.7923 37.3173,1.6315 17.6881,39.4668 -8.9288,17.2103 -13.1525,34.3731 -9.3859,38.1396 16.2755,16.2755 -8.8967,4.9018 -33.8233,-15.2826 z M 9016.3396,3990 c -10.6466,-27.7444 5.2179,-56.2607 28.6242,-51.4518 12.6783,2.6047 19.5254,12.9708 17.2336,26.091 -2.1211,12.1429 1.492,18.497 8.1708,14.3693 6.5854,-4.0699 15.881,-1.0776 20.6567,6.6499 5.2258,8.4554 3.4971,10.8445 -4.3416,6 -7.1637,-4.4274 -16.4168,-2.5618 -20.5623,4.1459 -11.2874,18.2631 -41.9163,14.6921 -49.7814,-5.8043 z m -162.5896,-2.1973 c 8.6624,-3.4665 19.0126,-3.0402 23,0.9468 3.9875,3.9875 -3.1,6.8237 -15.75,6.3026 -13.9794,-0.576 -16.8228,-3.4193 -7.25,-7.2499 z M 9979.0903,3835 c -8.8146,-7.15 -18.8046,-24.746 -22.2001,-39.1022 -4.7208,-19.9588 -1.7938,-24.4214 12.4366,-18.9607 12.2409,4.6973 15.6406,2.3365 9.9336,-6.8978 C 9974.0011,3761.5297 9978.2312,3756 9990,3756 c 11.769,0 15.999,5.5297 10.74,14.0393 -5.5267,8.9419 -2.5162,11.675 8.292,7.5278 12.45,-4.7777 16.968,3.7327 16.968,31.9607 0,39.8878 -17.454,49.3654 -46.9097,25.4722 z m -42.1429,-26 c 0.576,-13.9794 3.4193,-16.8228 7.2499,-7.25 3.4665,8.6624 3.0402,19.0126 -0.9468,23 -3.9875,3.9875 -6.8237,-3.1 -6.3026,-15.75 z m 500.1896,-23.8633 c -3.661,-3.6602 -2.775,-21.1634 1.967,-38.8958 9.37,-35.0364 46.2,-50.0195 61.621,-25.0683 10.115,16.3664 -9.692,65.8608 -21.593,53.9592 -3.808,-3.8079 -13.317,-1.6173 -21.132,4.8682 -7.815,6.4855 -17.203,8.797 -20.863,5.1367 z m -1324.9338,-32.0439 c -4.9092,-7.9432 -2.1661,-9.2502 7.2284,-3.4442 11.043,6.825 13.0362,2.7293 7.3659,-15.1359 -4.2756,-13.4711 -2.066,-28.0205 4.9101,-32.332 6.9762,-4.3115 9.231,-13.4261 5.0107,-20.2545 -4.2203,-6.8286 6.737,-2.9736 24.3495,8.5665 17.6126,11.5402 30.4274,29.2619 28.4775,39.3817 -4.377,22.7158 -66.1851,41.2708 -77.3421,23.2184 z M 9036,3367.2839 c 0,-34.2546 28.4922,-48.7893 48.4651,-24.7234 19.3302,23.2914 5.7406,53.4395 -24.0885,53.4395 -17.7111,0 -24.3766,-7.8521 -24.3766,-28.7161 z M 9108.9474,3365 c 0.576,-13.9794 3.4193,-16.8228 7.2499,-7.25 3.4665,8.6624 3.0402,19.0126 -0.9468,23 -3.9875,3.9875 -6.8237,-3.1 -6.3026,-15.75 z M 9921,3063.405 c -31.7432,-4.8088 -38.4172,-14.6569 -33.6192,-49.6092 1.363,-9.9287 -3.4518,-12.6961 -12.4324,-7.1459 -8.9368,5.5233 -11.5692,4.0627 -6.7452,-3.7427 14.7149,-23.8092 71.7999,2.0824 81.0778,36.774 4.7539,17.7753 7.7604,31.5098 6.6812,30.5208 -1.0788,-0.9888 -16.8122,-4.0476 -34.9622,-6.797 z m -11.25,-83.6023 c 8.6624,-3.4665 19.0126,-3.0402 23,0.9468 3.9875,3.9875 -3.1,6.8237 -15.75,6.3026 -13.9794,-0.576 -16.8228,-3.4193 -7.25,-7.2499 z m 575.87,-10.1825 c -3.509,-3.5089 -1.629,-31.8073 4.177,-62.8854 5.806,-31.0782 7.839,-63.5878 4.517,-72.2435 -3.321,-8.6558 -1.267,-12.7884 4.566,-9.1835 15.919,9.8387 27.362,-30.147 13.431,-46.9329 -6.656,-8.0207 -9.495,-18.1812 -6.307,-22.579 3.188,-4.3977 -0.64,-2.5509 -8.504,4.1041 -26.45,22.3806 -33.5,12.3983 -33.5,-47.4325 0,-45.9649 6.153,-65.511 27,-85.7648 14.85,-14.4277 19.416,-21.9039 10.146,-16.6134 -11.387,6.4985 -14.037,5.0611 -8.171,-4.4309 4.776,-7.7274 13.45,-11.1037 19.277,-7.5028 14.48,8.9495 124.014,-97.5454 115.123,-111.9302 -3.911,-6.3283 2.28,-18.8678 13.757,-27.8657 19.295,-15.1267 19.527,-14.5509 3.075,7.6403 -17.677,23.8432 -17.616,23.8481 9.423,0.7572 14.969,-12.7836 24.388,-30.614 20.931,-39.6233 -3.922,-10.2197 -1.058,-13.149 7.616,-7.7886 9.368,5.79 11.325,1.8769 6,-12 -5.325,-13.877 -3.369,-17.7901 6,-12 9.368,5.79 11.325,1.8769 6,-12 -5.325,-13.877 -3.369,-17.7901 6,-12 9.368,5.79 11.325,1.8769 6,-12 -4.694,-12.2313 -3.086,-17.6151 3.96,-13.2603 6.525,4.0322 11.863,1.6128 11.863,-5.3768 0,-7.3802 27.252,-12.7082 65,-12.7082 41.326,0 66.826,-5.4632 70.014,-15 2.758,-8.25 7.828,-0.3132 11.267,17.6369 3.945,20.5934 1.711,29.8303 -6.054,25.0314 -7.551,-4.6668 -9.252,0.3504 -4.404,12.9864 4.356,11.3501 2.966,17.5411 -3.097,13.7943 -14.263,-8.8155 -28.908,37.0756 -17.646,55.2977 5.764,9.3277 3.353,10.7014 -7.265,4.1388 -11.637,-7.1917 -13.777,-4.3074 -7.992,10.7692 5.325,13.877 3.369,17.7901 -6,12 -9.368,-5.79 -11.325,-1.8769 -6,12 4.356,11.3501 2.966,17.5411 -3.097,13.7943 -14.263,-8.8155 -28.908,37.0756 -17.646,55.2977 4.946,8.0032 3.431,10.7491 -3.551,6.4344 -16.05,-9.9195 -56.912,81.4011 -45.027,100.6306 5.606,9.0708 4.28,11.8519 -3.391,7.1113 -18.026,-11.1408 -29.169,25.81 -15.49,51.3685 12.043,22.5021 5.519,36.8377 -16.621,36.5248 -7.15,-0.096 -5.674,-4.8261 3.281,-10.5 11.35,-7.1916 12.258,-12.8026 3,-18.5245 -7.305,-4.5146 -13.956,-2.4896 -14.781,4.5 -2.897,24.5403 -4.958,30.8515 -15.536,47.5588 -5.867,9.268 14.576,-0.5184 45.431,-21.7462 30.854,-21.2285 53.2,-43.2881 49.656,-49.0216 -3.543,-5.7335 -0.12,-14.332 7.607,-19.1077 8.775,-5.4231 10.835,-3.4817 5.488,5.1708 -16.044,25.9595 3.437,13.9331 49.186,-30.3651 25.118,-24.3205 32.168,-33.7705 15.668,-21 l -30,23.2192 22.128,-26.1907 c 12.17,-14.4049 28.71,-23.6645 36.757,-20.5768 8.046,3.0876 24.575,-5.3766 36.732,-18.8093 12.156,-13.4328 17.729,-24.4232 12.383,-24.4232 -5.346,0 -0.276,-10.4358 11.268,-23.1907 11.543,-12.7549 27.489,-20.6958 35.435,-17.6464 7.947,3.0495 27.281,-8.1147 42.965,-24.8093 15.683,-16.6945 23.778,-30.3536 17.988,-30.3536 -5.79,0 10.137,-21.1614 35.392,-47.0252 27.706,-28.3728 54.512,-45.3706 67.582,-42.8535 15.599,3.0041 20.472,-2.0131 17.408,-17.9219 -2.34,-12.1515 7.072,-32.0175 20.917,-44.1466 13.844,-12.129 21.859,-16.3312 17.812,-9.338 -4.957,8.5641 15.332,11.0735 62.149,7.687 55.724,-4.0307 70.967,-1.2262 76.864,14.1413 4.448,11.589 1.596,18.0396 -7.212,16.3129 -8.579,-1.6819 -14.402,10.3412 -14.165,29.2475 0.222,17.6568 -4.745,28.9209 -11.039,25.0314 -6.568,-4.0594 -8.076,1.7001 -3.541,13.5198 5.325,13.877 3.369,17.7901 -6,12 -9.368,-5.79 -11.325,-1.8769 -6,12 4.346,11.3255 3.191,17.6799 -2.568,14.1211 -14.542,-8.9873 -41.621,60.451 -30.557,78.354 6.155,9.9584 3.973,11.4655 -6.883,4.7557 -11.637,-7.1917 -13.777,-4.3074 -7.992,10.7692 4.694,12.2313 3.086,17.6151 -3.96,13.2603 -10.822,-6.6877 -16.495,12.4482 -15.108,50.9559 0.294,8.1789 -3.984,12.0777 -9.508,8.6639 -14.233,-8.7964 -38.46,40.784 -30.309,62.0262 4.357,11.353 1.809,14.6091 -7.115,9.0937 -9.502,-5.8729 -11.271,-1.7357 -5.588,13.0741 7.336,19.1168 5.933,19.7014 -11.925,4.9685 -18.54,-15.2952 -18.966,-14.3085 -5.077,11.7509 10.985,20.6126 11.249,26.0298 0.955,19.6681 -9.737,-6.0177 -12.945,0.1344 -10.197,19.5518 4.981,35.1995 47.286,43.896 71.059,14.6075 14.438,-17.7886 14.453,-19.3776 0.1,-10.725 -11.689,7.0448 -14.12,5.7335 -7.932,-4.2792 6.877,-11.1275 13.319,-10.8648 28.101,1.146 16.396,13.3222 18.045,12.5572 11.364,-5.2733 -4.299,-11.4709 -3.96,-20.2814 0.753,-19.5789 22.774,3.3944 39.314,-2.651 33.406,-12.2103 -3.619,-5.8548 2.813,-9.9048 14.291,-9 11.479,0.9048 19.733,-4.4695 18.342,-11.943 -1.391,-7.4736 6.709,-12.8736 18,-12 11.291,0.8736 19.046,-5.5632 17.232,-14.3037 -1.813,-8.7406 2.237,-12.4719 9,-8.2918 6.764,4.1801 13.229,38.3315 14.369,75.892 l 2.071,68.2917 8.182,-78 8.183,-78 -1.254,78 c -1.118,69.5479 -3.851,78 -25.223,78 -13.282,0 -23.982,8.0182 -24,17.9842 -0.01,9.9685 -10.728,17.9912 -24.031,18 -15.043,0.01 -22.56,6.7335 -20.142,18.0158 3.093,14.4342 0.835,15.0285 -11.4,3 -22.407,-22.0293 -33.718,-18.3167 -28.396,9.3205 2.974,15.4428 -0.132,21.3442 -8.509,16.1667 -7.257,-4.4845 -20.707,2.1212 -29.89,14.6795 -9.183,12.5583 -19.163,21.4833 -22.179,19.8333 -12.268,-6.7119 -30.523,-2.3893 -25.338,6 3.06,4.95 -6.072,9.9487 -20.292,11.1083 -14.219,1.1592 -62.625,6.873 -107.569,12.6968 -51.36,6.6552 -84.367,6.2978 -88.854,-0.9624 -3.926,-6.353 -2.255,-8.5327 3.715,-4.8438 6.076,3.7544 10.742,-29.3335 10.599,-75.1575 -0.147,-47.3989 4.438,-78.9647 10.891,-74.9765 6.244,3.8593 8.168,-4.4974 4.374,-19.005 -4.382,-16.7567 -2.213,-23.0755 6.149,-17.9078 8.153,5.039 10.113,0.6708 5.313,-11.8396 -4.371,-11.3898 -2.088,-18.6094 5.366,-16.9685 7.136,1.5708 14.568,-6.6197 16.515,-18.2011 1.947,-11.5814 -1.385,-18.0128 -7.406,-14.2919 -6.021,3.7209 -10.947,1.3822 -10.947,-5.1971 0,-6.5793 -10.525,-11.1697 -23.388,-10.2007 -16.776,1.2637 -20.004,5.8401 -11.418,16.186 8.115,9.7777 7.321,17.2981 -2.465,23.3465 -9.153,5.6565 -11.303,3.8515 -5.875,-4.9317 9.928,-16.0639 -3.86,-17.9227 -26.487,-3.5707 -8.599,5.4538 -13.999,17.5211 -12,26.8163 1.998,9.2952 -3.685,15.3608 -12.63,13.4792 -20.572,-4.3274 -51.607,20.6868 -42.982,34.6433 3.571,5.7766 -1.023,7.619 -10.209,4.0943 -14.883,-5.7111 -50.546,23.4273 -50.546,41.298 0,3.8091 -8.086,7.0292 -17.969,7.1557 -9.883,0.126 -17.983,6.9798 -18,15.2298 -0.01,8.25 -5.431,15.5326 -12.031,16.1833 -23.464,2.3139 -54.574,24.1795 -48.465,34.0639 3.414,5.5238 -3.185,9.3028 -14.664,8.398 -11.479,-0.9048 -19.521,5.1048 -17.871,13.3548 1.65,8.25 -1.05,14.3605 -6,13.579 -23.974,-3.7853 -51.807,2.4063 -46.845,10.421 6.811,11.002 -74.954,8.807 -112.192,-3.0116 -18.366,-5.8294 -24.35,-4.322 -18.758,4.726 8.488,13.7338 3.649,18.1397 -7.585,6.9058 z m 525.63,-86.3702 c -12.198,-12.1982 -22.263,6.1666 -12.255,22.3605 7.561,12.2331 10.387,12.2425 14.452,0.048 2.779,-8.3375 1.791,-18.4215 -2.197,-22.409 z M 10969.531,2547 c 14.926,-19.0327 14.502,-19.4572 -4.531,-4.5307 -11.55,9.0582 -21,18.5082 -21,21 0,9.8765 9.854,3.5197 25.531,-16.4693 z m 159.271,-144 c 10,-23.275 3.121,-18.4337 -41.448,29.1697 l -41.354,44.1697 38.179,-29.1697 c 20.998,-16.0434 41.079,-35.9197 44.623,-44.1697 z m -662.907,513 c 0,-16.5 2.723,-23.25 6.052,-15 3.329,8.25 3.329,21.75 0,30 -3.329,8.25 -6.052,1.5 -6.052,-15 z m 480,-12 c 0,-16.5 2.723,-23.25 6.052,-15 3.329,8.25 3.329,21.75 0,30 -3.329,8.25 -6.052,1.5 -6.052,-15 z m 223.855,-128.1973 c 8.662,-3.4665 19.013,-3.0402 23,0.9468 3.988,3.9875 -3.1,6.8237 -15.75,6.3026 -13.979,-0.576 -16.823,-3.4193 -7.25,-7.2499 z m -1215.4603,-375.334 c -4.3715,-7.0731 -13.5351,-9.4073 -20.3635,-5.187 -6.8286,4.2203 -3.7366,-5.5727 6.8712,-21.7621 10.6077,-16.1894 17.0179,-31.7044 14.2447,-34.4776 -2.7731,-2.773 7.1979,-5.042 22.1579,-5.042 22.4624,0 26.991,6.2417 26,35.8356 -1.225,36.5868 -32.9504,56.4568 -48.9103,30.6331 z M 10021.895,2376 c 0,-16.5 2.723,-23.25 6.052,-15 3.329,8.25 3.329,21.75 0,30 -3.329,8.25 -6.052,1.5 -6.052,-15 z M 10749,2307.5312 c 14.85,-2.8603 39.15,-2.8603 54,0 14.85,2.8602 2.7,5.2005 -27,5.2005 -29.7,0 -41.85,-2.3403 -27,-5.2005 z M 9849.1127,2056.583 c -23.3701,-12.2449 -32.1101,-25.4482 -30.4138,-45.9458 2.0722,-25.0362 5.55,-27.067 26.8409,-15.6724 13.4531,7.1999 26.7716,10.8282 29.5968,8.063 2.8252,-2.7653 9.1013,9.7964 13.9469,27.9148 11.0588,41.3504 1.5969,47.42 -39.9708,25.6404 z M 9870,2028 c -4.079,-6.6 -12.8164,-12 -19.4164,-12 -6.6,0 -8.6626,5.4 -4.5836,12 4.079,6.6 12.8164,12 19.4164,12 6.6,0 8.6626,-5.4 4.5836,-12 z m 552.743,-10.7976 c -3.67,-5.9387 -5.623,-23.4887 -4.339,-39 1.691,-20.43 9.673,-28.2024 28.965,-28.2024 14.647,0 25.731,5.4 24.631,12 -1.1,6.6 4.147,10.851 11.66,9.4466 10.214,-1.9092 10.214,4.8796 0,26.9063 -13.498,29.1113 -47.98,39.781 -60.917,18.8495 z M 10392.947,1997 c 0.576,-13.9794 3.42,-16.8228 7.25,-7.25 3.467,8.6624 3.041,19.0124 -0.946,23 -3.988,3.9875 -6.824,-3.1 -6.303,-15.75 z m 709.453,-104.2521 c -6.666,-8.1114 -13.983,-25.0761 -16.26,-37.6995 -3.375,-18.7087 3.069,-22.994 34.86,-23.1818 21.45,-0.126 39,3.4516 39,7.9516 0,4.5 0,16.0918 0,25.7596 0,25.761 -42.343,45.7346 -57.6,27.1701 z m -7.168,-326.7451 c -12.522,-9.4787 -27.413,-14.363 -33.091,-10.8539 -5.678,3.509 -4.015,-7.4639 3.694,-24.3844 17.401,-38.1902 70.165,-43.8097 70.165,-7.4727 0,12.8104 -5.488,26.6836 -12.196,30.8292 -6.707,4.1455 -9.089,12.5642 -5.291,18.7082 9.408,15.2227 3.598,13.5191 -23.281,-6.8264 z m -514.819,-205.5899 c -2.737,-2.7373 -2.336,-18.7936 0.893,-35.6807 7.353,-38.4641 34.661,-49.9087 59.594,-24.9754 15.022,15.0221 16.009,22.6895 4.676,36.3442 -14.717,17.7335 -56.247,33.2279 -65.163,24.3119 z M 10888.8,1314 c 0.92,-27.6 6.8,-36 25.2,-36 18.4,0 24.28,8.4 25.2,36 0.982,29.4546 -3.6,36 -25.2,36 -21.6,0 -26.182,-6.5454 -25.2,-36 z m 69.095,-6 c 0,-16.5 2.723,-23.25 6.052,-15 3.329,8.25 3.329,21.75 0,30 -3.329,8.25 -6.052,1.5 -6.052,-15 z M 10356,871 c 0,-9.35 -6.356,-19.11869 -14.125,-21.70821 -25.814,-8.60468 2.982,-33.29179 38.833,-33.29179 34.424,0 46.827,15.45462 23.816,29.6761 -6.312,3.90087 -8.434,15.01957 -4.716,24.7082 4.625,12.0527 -1.225,17.6157 -18.524,17.6157 -13.906,0 -25.284,-7.65 -25.284,-17 z m 354.857,-73.85715 c -10.371,-10.37142 -18.857,-23.21022 -18.857,-28.53066 0,-14.58157 26.994,-33.81303 54,-38.47193 19.33,-3.33471 23.206,1.49049 19.917,24.79986 -2.246,15.91707 -11.31,36.16707 -20.143,45 -13.413,13.41317 -19.167,12.95218 -34.917,-2.79727 z m 338.384,-119.90202 c -16.424,-16.42425 11.763,-70.31763 40.846,-78.09557 29.575,-7.90952 30.388,-6.72226 21.718,31.71806 -4.953,21.96432 -5.586,43.63694 -1.406,48.16136 4.181,4.52443 -4.194,2.09478 -18.61,-5.39922 -32.334,-16.80856 -43.505,-17.34592 -33.789,-1.62546 7.983,12.9161 2.31,16.3101 -8.759,5.24083 z M 11028.947,629 c 0.576,-13.97931 3.42,-16.8228 7.25,-7.25 3.467,8.6625 3.041,19.0125 -0.946,23 -3.988,3.9875 -6.824,-3.1 -6.303,-15.75 z m 44.803,-49.19737 c 8.662,-3.46645 19.013,-3.04013 23,0.9474 3.988,3.98751 -3.1,6.82369 -15.75,6.30264 -13.979,-0.57576 -16.823,-3.41929 -7.25,-7.25 z"
           id="path255" />
      </g>
    </g>
  </g>
</svg>
